<?xml version="1.0" encoding="UTF-8"?>
<svg width="154px" height="56px" viewBox="0 0 154 56" version="1.1" xmlns="http://www.w3.org/2000/svg" xmlns:xlink="http://www.w3.org/1999/xlink">
    <!-- Generator: Sketch 58 (84663) - https://sketch.com -->
    <title>LOGO_GLC</title>
    <desc>Created with Sketch.</desc>
    <g id="Page-1" stroke="none" stroke-width="1" fill="none" fill-rule="evenodd">
        <g id="LOGO_GLC" fill-rule="nonzero">
            <g id="Group" transform="translate(7.000000, 0.000000)" fill="#1BCE6E">
                <path d="M18.6722034,25.6235714 C17.6589831,26.5764286 16.5216949,27.3428571 15.2810169,27.9228571 C14.040339,28.4821429 12.7376271,28.8342857 11.3728814,28.9378571 C10.3389831,29.0207143 9.34644068,28.9585714 8.37457627,28.7721429 C7.42338983,28.5857143 6.51355932,28.275 5.68644068,27.84 C4.85932203,27.405 4.09423729,26.8871429 3.39118644,26.245 C2.70881356,25.6028571 2.10915254,24.8985714 1.61288136,24.0907143 C1.11661017,23.2828571 0.74440678,22.4128571 0.47559322,21.4807143 C0.206779661,20.5278571 0.0620338983,19.5542857 0.0620338983,18.4978571 C0.0620338983,17.4414286 0.206779661,16.4471429 0.47559322,15.4735714 C0.74440678,14.5 1.11661017,13.5678571 1.61288136,12.6771429 C2.10915254,11.7864286 2.68813559,10.9785714 3.39118644,10.2121429 C4.07355932,9.46642857 4.83864407,8.80357143 5.68644068,8.22357143 C6.51355932,7.66428571 7.42338983,7.18785714 8.37457627,6.83571429 C9.32576271,6.48357143 10.3389831,6.235 11.3728814,6.15214286 C12.7169492,6.02785714 14.019661,6.13142857 15.2810169,6.48357143 C16.5216949,6.83571429 17.6589831,7.395 18.6722034,8.18214286 L16.3769492,12.2421429 C15.7152542,11.6207143 14.9501695,11.165 14.0816949,10.8542857 C13.2132203,10.5435714 12.3033898,10.44 11.3522034,10.5228571 C10.4010169,10.6057143 9.49118644,10.875 8.6640678,11.3307143 C7.81627119,11.7657143 7.09254237,12.3457143 6.45152542,13.0292857 C5.81050847,13.7128571 5.31423729,14.5 4.96271186,15.37 C4.59050847,16.24 4.40440678,17.1721429 4.40440678,18.125 C4.40440678,19.0985714 4.59050847,19.9892857 4.96271186,20.7971429 C5.33491525,21.605 5.83118644,22.3092857 6.45152542,22.8892857 C7.09254237,23.4692857 7.81627119,23.9042857 8.6640678,24.215 C9.51186441,24.505 10.4010169,24.6292857 11.3522034,24.5464286 C11.9105085,24.505 12.4274576,24.3807143 12.9444068,24.215 C13.4613559,24.0492857 13.9576271,23.8214286 14.4332203,23.5314286 L14.4332203,17.2342857 L18.6515254,16.8614286 L18.6515254,25.6235714 L18.6722034,25.6235714 Z" id="Path"></path>
                <path d="M37.4064407,26.3692857 L36.3932203,26.4521429 L34.780339,24.2771429 C34.3874576,24.6707143 33.9738983,25.0435714 33.5189831,25.3957143 C33.0847458,25.7478571 32.6091525,26.0585714 32.1335593,26.3278571 C31.6372881,26.5971429 31.1410169,26.825 30.6240678,27.0114286 C30.1071186,27.1771429 29.5901695,27.3014286 29.0525424,27.3428571 C27.8945763,27.4257143 26.819322,27.3221429 25.8061017,27.0114286 C24.7928814,26.7007143 23.9037288,26.2035714 23.159322,25.52 C22.3942373,24.8364286 21.7945763,23.9664286 21.360339,22.91 C20.9261017,21.8535714 20.6986441,20.6521429 20.6986441,19.2642857 C20.6986441,17.98 20.9261017,16.7785714 21.360339,15.66 C21.7945763,14.5414286 22.3942373,13.5678571 23.159322,12.7185714 C23.9244068,11.8692857 24.7928814,11.1857143 25.8061017,10.6678571 C26.819322,10.15 27.8945763,9.83928571 29.0525424,9.73571429 C29.5901695,9.69428571 30.1071186,9.715 30.6240678,9.79785714 C31.1410169,9.88071429 31.6372881,10.0257143 32.1335593,10.2121429 C32.6298305,10.3985714 33.0847458,10.6471429 33.5189831,10.9371429 C33.9532203,11.2271429 34.3667797,11.5378571 34.759661,11.8692857 L36.3725424,9.73571429 L37.3857627,9.65285714 L37.3857627,26.3692857 L37.4064407,26.3692857 Z M33.2088136,18.2078571 C33.2088136,17.6278571 33.1054237,17.0685714 32.8779661,16.5507143 C32.6505085,16.0328571 32.3610169,15.5771429 31.9888136,15.1835714 C31.6166102,14.79 31.1823729,14.5 30.6654237,14.2928571 C30.1691525,14.0857143 29.6315254,14.0028571 29.0525424,14.0442857 C28.4735593,14.0857143 27.9566102,14.2307143 27.439661,14.4792857 C26.9433898,14.7278571 26.5091525,15.0385714 26.1369492,15.4735714 C25.7647458,15.8878571 25.4752542,16.385 25.2684746,16.965 C25.0616949,17.545 24.9583051,18.2078571 24.9583051,18.9328571 C24.9583051,19.6578571 25.0616949,20.3 25.2684746,20.8385714 C25.4752542,21.3771429 25.7854237,21.8328571 26.1369492,22.185 C26.5091525,22.5371429 26.9433898,22.7857143 27.439661,22.9514286 C27.9359322,23.0964286 28.4735593,23.1585714 29.0525424,23.1171429 C29.6315254,23.0757143 30.1484746,22.8892857 30.6654237,22.5992857 C31.1616949,22.3092857 31.6166102,21.9364286 31.9888136,21.4807143 C32.3610169,21.025 32.6711864,20.5278571 32.8779661,19.9478571 C33.1054237,19.3678571 33.2088136,18.7878571 33.2088136,18.2078571 Z" id="Shape"></path>
                <path d="M44.7471186,25.7685714 L40.5908475,26.1 L40.5908475,9.32142857 L41.6040678,9.23857143 L42.9688136,11.1028571 C43.6305085,10.4192857 44.3955932,9.86 45.2640678,9.44571429 C46.1118644,9.03142857 47.0010169,8.78285714 47.9108475,8.7 L51.5915254,8.36857143 L51.5915254,12.6564286 L47.9108475,12.9878571 C47.4766102,13.0292857 47.0630508,13.1535714 46.6701695,13.34 C46.2772881,13.5471429 45.9464407,13.7957143 45.6569492,14.1271429 C45.3674576,14.4378571 45.14,14.8107143 44.9952542,15.225 C44.8298305,15.6392857 44.7471186,16.0742857 44.7471186,16.5092857 L44.7471186,25.7685714 L44.7471186,25.7685714 Z" id="Path"></path>
                <path d="M68.9816949,23.8421429 L67.9684746,23.925 L66.3555932,21.7085714 C65.9627119,22.1228571 65.5491525,22.4957143 65.0942373,22.8478571 C64.66,23.2 64.1844068,23.5314286 63.7088136,23.8007143 C63.2125424,24.07 62.7162712,24.2978571 62.199322,24.4842857 C61.6823729,24.6707143 61.1654237,24.7742857 60.6277966,24.8157143 C59.4698305,24.8985714 58.3945763,24.7742857 57.3813559,24.4014286 C56.3681356,24.0285714 55.4789831,23.49 54.7345763,22.7442857 C53.9694915,22.0192857 53.3905085,21.1078571 52.9355932,20.0721429 C52.5013559,19.0157143 52.2738983,17.8557143 52.2738983,16.5714286 C52.2738983,15.3078571 52.5013559,14.0857143 52.9355932,12.9671429 C53.3698305,11.8278571 53.9694915,10.8335714 54.7345763,9.96357143 C55.499661,9.09357143 56.3681356,8.38928571 57.3813559,7.85071429 C58.3945763,7.31214286 59.4698305,6.98071429 60.6277966,6.87714286 C61,6.83571429 61.3722034,6.83571429 61.7650847,6.87714286 C62.1579661,6.89785714 62.5301695,6.98071429 62.9023729,7.08428571 C63.2745763,7.18785714 63.6261017,7.35357143 63.9569492,7.56071429 C64.2877966,7.76785714 64.5566102,8.01642857 64.7840678,8.34785714 L64.7840678,0.393571429 L68.9816949,8.52651283e-14 L68.9816949,23.8421429 Z M64.7840678,15.515 C64.7840678,14.9142857 64.680678,14.355 64.4532203,13.8164286 C64.2257627,13.2778571 63.9362712,12.8221429 63.5640678,12.4078571 C63.1918644,12.0142857 62.7576271,11.7035714 62.240678,11.4964286 C61.7444068,11.2892857 61.2067797,11.2064286 60.6277966,11.2478571 C60.0488136,11.2892857 59.5318644,11.455 59.0149153,11.7035714 C58.5186441,11.9521429 58.0844068,12.3042857 57.7122034,12.7392857 C57.34,13.1742857 57.0505085,13.6714286 56.8437288,14.2721429 C56.6369492,14.8521429 56.5335593,15.515 56.5335593,16.24 C56.5335593,16.8614286 56.6369492,17.4414286 56.8437288,17.98 C57.0505085,18.5185714 57.34,18.995 57.7122034,19.3678571 C58.0844068,19.7614286 58.5186441,20.0514286 59.0149153,20.2585714 C59.5111864,20.4657143 60.0488136,20.5278571 60.6277966,20.4864286 C61.2067797,20.445 61.7237288,20.2585714 62.240678,19.9685714 C62.7369492,19.6578571 63.1918644,19.285 63.5640678,18.8292857 C63.9362712,18.3735714 64.2464407,17.8557143 64.4532203,17.2757143 C64.680678,16.675 64.7840678,16.095 64.7840678,15.515 Z" id="Shape"></path>
                <path d="M87.9227119,13.5264286 C87.9227119,14.8107143 87.6952542,16.0328571 87.2610169,17.1928571 C86.8267797,18.3321429 86.2271186,19.3471429 85.4827119,20.2171429 C84.7383051,21.0871429 83.8491525,21.7914286 82.8359322,22.3507143 C81.8227119,22.8892857 80.7474576,23.2207143 79.5894915,23.3035714 C78.4315254,23.3864286 77.3562712,23.2414286 76.3430508,22.8685714 C75.3298305,22.4957143 74.440678,21.9157143 73.6962712,21.17 C72.9311864,20.4242857 72.3522034,19.5335714 71.8972881,18.4564286 C71.4630508,17.4 71.2355932,16.2192857 71.2355932,14.935 C71.2355932,13.63 71.4630508,12.4078571 71.8972881,11.2685714 C72.3315254,10.1292857 72.9311864,9.11428571 73.6962712,8.24428571 C74.4613559,7.37428571 75.3298305,6.64928571 76.3430508,6.11071429 C77.3562712,5.55142857 78.4315254,5.24071429 79.5894915,5.13714286 C80.7474576,5.03357143 81.8227119,5.15785714 82.8359322,5.48928571 C83.8491525,5.84142857 84.7383051,6.38 85.4827119,7.105 C86.2271186,7.83 86.8267797,8.74142857 87.2610169,9.83928571 C87.7159322,10.9164286 87.9227119,12.1592857 87.9227119,13.5264286 Z M83.7250847,13.8785714 C83.7250847,13.1742857 83.6216949,12.5321429 83.3942373,11.9935714 C83.1667797,11.4342857 82.8772881,10.9785714 82.5050847,10.585 C82.1328814,10.2121429 81.6986441,9.92214286 81.1816949,9.75642857 C80.6854237,9.59071429 80.1477966,9.52857143 79.5688136,9.57 C78.9898305,9.61142857 78.4728814,9.77714286 77.9559322,10.0464286 C77.459661,10.3157143 77.0254237,10.6678571 76.6532203,11.1028571 C76.2810169,11.5378571 75.9915254,12.0557143 75.7847458,12.6564286 C75.5779661,13.2364286 75.4538983,13.8992857 75.4538983,14.6035714 C75.4538983,15.2664286 75.5572881,15.8671429 75.7847458,16.4264286 C75.9915254,16.965 76.2810169,17.4414286 76.6532203,17.835 C77.0254237,18.2285714 77.459661,18.5185714 77.9559322,18.705 C78.4522034,18.9121429 78.9898305,18.9742857 79.5688136,18.9328571 C80.1477966,18.8914286 80.6647458,18.7257143 81.1816949,18.4564286 C81.6779661,18.1871429 82.1328814,17.835 82.5050847,17.4 C82.8772881,16.965 83.1874576,16.4471429 83.3942373,15.8464286 C83.6216949,15.225 83.7250847,14.5828571 83.7250847,13.8785714 Z" id="Shape"></path>
                <path d="M94.3949153,21.7914286 L90.2386441,22.1228571 L90.2386441,4.82642857 L91.2518644,4.74357143 L92.6166102,6.29714286 C93.2783051,5.59285714 94.0433898,5.01285714 94.8911864,4.59857143 C95.7389831,4.16357143 96.6281356,3.915 97.5586441,3.83214286 C98.5511864,3.74928571 99.5023729,3.85285714 100.370847,4.18428571 C101.26,4.51571429 102.025085,4.99214286 102.68678,5.655 C103.348475,6.29714286 103.865424,7.08428571 104.258305,8.01642857 C104.630508,8.92785714 104.837288,9.92214286 104.837288,10.9992857 L104.837288,20.9628571 L100.681017,21.2942857 L100.681017,11.3514286 C100.681017,10.8957143 100.598305,10.4814286 100.432881,10.0878571 C100.267458,9.69428571 100.04,9.36285714 99.7711864,9.09357143 C99.4816949,8.82428571 99.1508475,8.59642857 98.7786441,8.47214286 C98.4064407,8.32714286 97.9928814,8.28571429 97.579322,8.32714286 C97.1450847,8.36857143 96.7315254,8.49285714 96.3386441,8.7 C95.9457627,8.90714286 95.6149153,9.17642857 95.3254237,9.50785714 C95.0359322,9.83928571 94.8084746,10.2121429 94.6637288,10.6264286 C94.4983051,11.0407143 94.4155932,11.4757143 94.4155932,11.9314286 L94.4155932,21.7914286 L94.3949153,21.7914286 Z" id="Path"></path>
                <path d="M116.727119,20.01 L107.215254,20.7764286 L107.215254,16.3435714 L116.727119,15.5564286 C117.01661,15.5357143 117.264746,15.4114286 117.450847,15.1628571 C117.657627,14.935 117.761017,14.6657143 117.761017,14.355 C117.761017,14.0442857 117.657627,13.8371429 117.450847,13.7542857 C117.244068,13.6714286 116.995932,13.6507143 116.727119,13.6714286 L112.405424,14.0442857 C111.681695,14.1064286 110.999322,14.0235714 110.378983,13.775 C109.737966,13.5264286 109.200339,13.1742857 108.724746,12.7185714 C108.249153,12.2628571 107.897627,11.7035714 107.628814,11.0407143 C107.36,10.3985714 107.215254,9.67357143 107.215254,8.90714286 C107.215254,8.14071429 107.36,7.395 107.628814,6.71142857 C107.897627,6.00714286 108.269831,5.38571429 108.724746,4.84714286 C109.200339,4.30857143 109.737966,3.85285714 110.378983,3.52142857 C111.02,3.16928571 111.681695,2.96214286 112.405424,2.9 L120.842034,2.13357143 L120.842034,6.60785714 L112.405424,7.35357143 C112.115932,7.37428571 111.867797,7.49857143 111.681695,7.74714286 C111.474915,7.975 111.371525,8.24428571 111.371525,8.555 C111.371525,8.86571429 111.474915,9.135 111.681695,9.34214286 C111.888475,9.54928571 112.13661,9.63214286 112.405424,9.61142857 L116.727119,9.23857143 C117.430169,9.17642857 118.112542,9.23857143 118.732881,9.44571429 C119.373898,9.65285714 119.911525,9.96357143 120.387119,10.3778571 C120.862712,10.7921429 121.234915,11.31 121.503729,11.9521429 C121.772542,12.5735714 121.917288,13.2778571 121.917288,14.0442857 C121.917288,14.8314286 121.772542,15.5564286 121.503729,16.2607143 C121.234915,16.965 120.862712,17.5864286 120.387119,18.125 C119.911525,18.6635714 119.373898,19.1192857 118.732881,19.4507143 C118.112542,19.7407143 117.450847,19.9478571 116.727119,20.01 Z" id="Path"></path>
            </g>
            <g id="Group" transform="translate(0.000000, 22.000000)" fill="#5662E8">
                <polygon id="Path" points="4.33547926 33.6060976 0.124463519 33.8963415 0.124463519 11.0085366 4.33547926 10.6768293"></polygon>
                <path d="M14.0228898,28.9207317 C14.1888412,28.9621951 14.3547926,28.9829268 14.5207439,28.9829268 C14.6866953,28.9829268 14.8526466,28.9829268 15.018598,28.9621951 C15.4334764,28.9414634 15.8276109,28.8585366 16.2010014,28.7134146 C16.574392,28.5682927 16.9270386,28.3817073 17.2589413,28.1536585 C17.5908441,27.9256098 17.8812589,27.6353659 18.1509299,27.3243902 C18.4206009,26.9926829 18.6280401,26.6609756 18.7939914,26.2670732 L21.8433476,29.1695122 C21.4492132,29.75 21.0135908,30.2890244 20.4949928,30.7658537 C19.9971388,31.2426829 19.4370529,31.6573171 18.8562232,32.0097561 C18.2753934,32.3621951 17.6530758,32.6317073 17.0100143,32.8390244 C16.3669528,33.0463415 15.7031474,33.1707317 15.018598,33.2121951 C13.8569385,33.295122 12.7782546,33.15 11.7618026,32.7768293 C10.7453505,32.4243902 9.85336195,31.8853659 9.10658083,31.1597561 C8.33905579,30.4341463 7.75822604,29.5634146 7.3018598,28.547561 C6.86623748,27.5109756 6.63805436,26.3707317 6.63805436,25.1060976 C6.63805436,23.8 6.86623748,22.597561 7.3018598,21.4987805 C7.73748212,20.4 8.33905579,19.4256098 9.10658083,18.6170732 C9.87410587,17.8085366 10.7453505,17.145122 11.7618026,16.647561 C12.7782546,16.15 13.8569385,15.8597561 15.018598,15.7768293 C15.7031474,15.7146341 16.3669528,15.7560976 17.0307582,15.8804878 C17.6738197,16.004878 18.2961373,16.1914634 18.897711,16.4402439 C19.4785408,16.7097561 20.0386266,17.0414634 20.5364807,17.4560976 C21.0550787,17.8707317 21.490701,18.3268293 21.8848355,18.8658537 L14.0228898,28.9207317 Z M16.1595136,20.0890244 C15.9728183,20.0268293 15.7653791,20.0060976 15.5786838,19.9853659 C15.3919886,19.9853659 15.1845494,19.9853659 14.9978541,20.0060976 C14.4170243,20.047561 13.8984263,20.1926829 13.3798283,20.4414634 C12.8819742,20.6902439 12.4463519,21.0219512 12.0729614,21.4365854 C11.6995708,21.8512195 11.4091559,22.3487805 11.2017167,22.9085366 C10.9942775,23.4682927 10.8905579,24.0902439 10.8905579,24.7743902 C10.8905579,24.9195122 10.8905579,25.1060976 10.9113019,25.2926829 C10.9320458,25.4792683 10.9527897,25.6865854 10.9942775,25.8731707 C11.0357654,26.0597561 11.0772532,26.2670732 11.1187411,26.4329268 C11.1602289,26.6195122 11.2432046,26.7646341 11.3261803,26.9097561 L16.1595136,20.0890244 Z" id="Shape"></path>
                <path d="M47.0264664,17.2902439 L43.9771102,20.6695122 C43.8319027,20.2341463 43.6244635,19.8609756 43.3547926,19.5292683 C43.0851216,19.197561 42.7947067,18.9280488 42.462804,18.7207317 C42.1309013,18.5134146 41.7782546,18.347561 41.3841202,18.2439024 C40.9899857,18.1402439 40.5958512,18.1195122 40.2017167,18.1402439 C39.620887,18.1817073 39.102289,18.347561 38.583691,18.6170732 C38.0858369,18.8865854 37.6502146,19.2597561 37.276824,19.7158537 C36.9034335,20.1719512 36.6130186,20.7109756 36.4055794,21.3121951 C36.1981402,21.9134146 36.0736767,22.5768293 36.0736767,23.302439 C36.0736767,23.8829268 36.1773963,24.4219512 36.4055794,24.9195122 C36.6130186,25.4170732 36.9034335,25.8317073 37.276824,26.204878 C37.6502146,26.5573171 38.0858369,26.8268293 38.583691,27.0134146 C39.0815451,27.2 39.620887,27.2621951 40.2017167,27.2207317 C40.6165951,27.2 41.0107296,27.1170732 41.3841202,26.9719512 C41.7575107,26.8268293 42.1101574,26.6402439 42.4420601,26.4121951 C42.7739628,26.1841463 43.0643777,25.8939024 43.3340486,25.5621951 C43.6037196,25.2304878 43.8111588,24.8780488 43.9771102,24.4841463 L47.0264664,27.4280488 C46.6323319,28.0085366 46.1967096,28.547561 45.6781116,29.045122 C45.1802575,29.5219512 44.6201717,29.9365854 44.0393419,30.2890244 C43.4585122,30.6414634 42.8361946,30.9109756 42.193133,31.1182927 C41.5500715,31.3256098 40.8862661,31.45 40.2017167,31.4914634 C39.0400572,31.5743902 37.9613734,31.4292683 36.9449213,31.0560976 C35.9284692,30.6829268 35.0364807,30.1439024 34.2896996,29.4182927 C33.5221745,28.6926829 32.9413448,27.8426829 32.4849785,26.847561 C32.0493562,25.852439 31.8211731,24.7743902 31.8211731,23.5926829 C31.8211731,22.3280488 32.0493562,21.104878 32.4849785,19.9646341 C32.9206009,18.8243902 33.5221745,17.8085366 34.2896996,16.9378049 C35.0572246,16.0463415 35.9284692,15.3414634 36.9449213,14.7817073 C37.9613734,14.2219512 39.0400572,13.9109756 40.2017167,13.8073171 C40.8862661,13.745122 41.5500715,13.7865854 42.213877,13.9109756 C42.8776824,14.0353659 43.5,14.2426829 44.1015737,14.5329268 C44.7031474,14.8231707 45.2424893,15.1963415 45.7610873,15.652439 C46.2174535,16.15 46.6530758,16.6890244 47.0264664,17.2902439 Z" id="Path"></path>
                <path d="M64.6380544,20.9390244 C64.6380544,22.2036585 64.4098712,23.4060976 63.9742489,24.5256098 C63.5386266,25.645122 62.9370529,26.6402439 62.1902718,27.4695122 C61.4434907,28.3195122 60.5515021,29.0036585 59.5350501,29.5219512 C58.518598,30.0402439 57.4399142,30.3512195 56.2782546,30.4341463 C55.1165951,30.5170732 54.0379113,30.3512195 53.0214592,29.9573171 C52.0050072,29.5634146 51.1130186,29.0036585 50.3662375,28.2780488 C49.5987124,27.5317073 49.0178827,26.6402439 48.5615165,25.6036585 C48.1258941,24.5463415 47.897711,23.4060976 47.897711,22.1414634 C47.897711,20.8560976 48.1258941,19.6743902 48.5615165,18.554878 C48.9971388,17.4353659 49.5987124,16.4609756 50.3662375,15.6109756 C51.1337625,14.7609756 52.0050072,14.0768293 53.0214592,13.5585366 C54.0379113,13.0402439 55.1165951,12.7292683 56.2782546,12.6256098 C57.4399142,12.5426829 58.518598,12.6670732 59.5350501,13.0195122 C60.5515021,13.3719512 61.4434907,13.9109756 62.1902718,14.6365854 C62.9370529,15.3621951 63.5386266,16.2536585 63.9742489,17.3317073 C64.4098712,18.3890244 64.6380544,19.5914634 64.6380544,20.9390244 Z M60.4270386,21.25 C60.4270386,20.5658537 60.323319,19.9439024 60.0951359,19.3841463 C59.8669528,18.845122 59.5765379,18.3682927 59.2031474,17.995122 C58.8297568,17.6219512 58.3941345,17.3317073 57.8755365,17.1658537 C57.3776824,16.9792683 56.8383405,16.9170732 56.2575107,16.9585366 C55.676681,17 55.158083,17.145122 54.639485,17.3939024 C54.1416309,17.6426829 53.7060086,17.995122 53.332618,18.4097561 C52.9592275,18.845122 52.6688126,19.3426829 52.4613734,19.9231707 C52.2539342,20.5036585 52.1294707,21.1256098 52.1294707,21.8304878 C52.1294707,22.4731707 52.2331903,23.0743902 52.4613734,23.6134146 C52.6688126,24.152439 52.9592275,24.6085366 53.332618,25.002439 C53.7060086,25.3756098 54.1416309,25.6865854 54.639485,25.8731707 C55.1373391,26.0804878 55.676681,26.1634146 56.2575107,26.1219512 C56.8383405,26.0804878 57.3569385,25.9353659 57.8755365,25.6865854 C58.3733906,25.4378049 58.8297568,25.0853659 59.2031474,24.6707317 C59.5765379,24.2353659 59.8876967,23.7378049 60.0951359,23.1573171 C60.323319,22.5560976 60.4270386,21.9341463 60.4270386,21.25 Z" id="Shape"></path>
                <path d="M71.1309013,29.1280488 L66.9613734,29.397561 L66.9613734,12.4390244 L67.9778255,12.3560976 L69.3469242,13.8902439 C70.0107296,13.2060976 70.7782546,12.6670732 71.6287554,12.252439 C72.4792561,11.8378049 73.3712446,11.6097561 74.304721,11.5268293 C75.3004292,11.4439024 76.2546495,11.5682927 77.1258941,11.9 C78.0178827,12.2317073 78.7854077,12.7292683 79.4492132,13.3719512 C80.1130186,14.0146341 80.6316166,14.802439 81.0257511,15.6939024 C81.3991416,16.6060976 81.6065808,17.5804878 81.6065808,18.6170732 L81.6065808,28.3817073 L77.4370529,28.6512195 L77.4370529,18.9073171 C77.4370529,18.4719512 77.3540773,18.0365854 77.1881259,17.6634146 C77.0221745,17.2695122 76.7939914,16.9378049 76.5243205,16.6682927 C76.2339056,16.3987805 75.9020029,16.1914634 75.5286123,16.0463415 C75.1552217,15.9012195 74.7403433,15.8597561 74.3254649,15.8804878 C73.8898426,15.9219512 73.4749642,16.0256098 73.0808298,16.2329268 C72.6866953,16.4402439 72.3547926,16.6890244 72.0643777,17 C71.7739628,17.3109756 71.5457797,17.6841463 71.4005722,18.0780488 C71.2346209,18.4926829 71.1516452,18.9073171 71.1516452,19.3634146 L71.1516452,29.1280488 L71.1309013,29.1280488 Z" id="Path"></path>
                <path d="M92.5386266,27.697561 C91.5221745,27.7597561 90.5886981,27.6353659 89.6967096,27.2829268 C88.804721,26.9512195 88.037196,26.4536585 87.3733906,25.7902439 C86.7095851,25.1268293 86.1909871,24.3597561 85.7968526,23.4682927 C85.4234621,22.5768293 85.2160229,21.5817073 85.2160229,20.545122 L85.2160229,15.4658537 L83.1831187,15.6109756 L83.1831187,11.2780488 L85.2160229,11.1329268 L85.2160229,4.29146341 L89.3855508,3.9597561 L89.3855508,10.7804878 L95.7124464,10.3036585 L95.7124464,14.6780488 L89.3855508,15.1341463 L89.3855508,20.2341463 C89.3855508,20.6902439 89.4685265,21.1256098 89.6344778,21.4987805 C89.8004292,21.8926829 90.0286123,22.2243902 90.2982833,22.4939024 C90.5886981,22.7634146 90.9206009,22.9914634 91.3147353,23.1365854 C91.7088698,23.2817073 92.1237482,23.3439024 92.5593705,23.3231707 L95.7331903,23.095122 L95.7331903,27.4695122 L92.5386266,27.697561 Z" id="Path"></path>
                <path d="M113.904864,26.2670732 L112.888412,26.3292683 L111.270386,24.0487805 C110.876252,24.4634146 110.461373,24.8365854 110.005007,25.1890244 C109.569385,25.5414634 109.092275,25.8731707 108.615165,26.1426829 C108.11731,26.4121951 107.619456,26.6402439 107.100858,26.8268293 C106.58226,26.9926829 106.063662,27.0963415 105.52432,27.1378049 C104.362661,27.2207317 103.283977,27.0756098 102.267525,26.7439024 C101.251073,26.4121951 100.359084,25.8731707 99.6123033,25.147561 C98.8447783,24.4219512 98.2639485,23.5097561 97.8075823,22.4109756 C97.3719599,21.3121951 97.1437768,20.047561 97.1437768,18.6170732 C97.1437768,17.2695122 97.3719599,16.0256098 97.8075823,14.8853659 C98.2432046,13.7243902 98.8447783,12.7292683 99.6123033,11.8585366 C100.379828,10.9878049 101.251073,10.3036585 102.267525,9.78536585 C103.283977,9.26707317 104.362661,8.95609756 105.52432,8.87317073 C106.063662,8.83170732 106.58226,8.87317073 107.100858,8.95609756 C107.619456,9.0597561 108.11731,9.20487805 108.615165,9.43292683 C109.113019,9.6402439 109.569385,9.9097561 110.005007,10.2 C110.440629,10.5109756 110.855508,10.8219512 111.249642,11.195122 L112.867668,9.01829268 L113.88412,8.93536585 L113.88412,26.2670732 L113.904864,26.2670732 Z M109.693848,17.7256098 C109.693848,17.1243902 109.590129,16.5439024 109.361946,15.9841463 C109.133763,15.4243902 108.843348,14.947561 108.469957,14.5536585 C108.096567,14.1390244 107.660944,13.8280488 107.142346,13.6 C106.644492,13.3719512 106.10515,13.2890244 105.52432,13.3304878 C104.943491,13.3719512 104.424893,13.5170732 103.906295,13.7658537 C103.408441,14.0146341 102.972818,14.3463415 102.599428,14.7609756 C102.226037,15.1756098 101.935622,15.6939024 101.728183,16.295122 C101.520744,16.8963415 101.417024,17.5804878 101.417024,18.3268293 C101.417024,19.0731707 101.520744,19.7365854 101.728183,20.3170732 C101.935622,20.8768293 102.226037,21.3536585 102.599428,21.7268293 C102.972818,22.1 103.408441,22.3695122 103.906295,22.5353659 C104.404149,22.7012195 104.943491,22.7634146 105.52432,22.7219512 C106.10515,22.6804878 106.623748,22.5146341 107.142346,22.2243902 C107.6402,21.9341463 108.096567,21.5402439 108.469957,21.0841463 C108.843348,20.6280488 109.154506,20.0890244 109.361946,19.5085366 C109.590129,18.9280488 109.693848,18.3268293 109.693848,17.7256098 Z" id="Shape"></path>
                <path d="M131.391989,11.05 L128.342632,14.5536585 C128.197425,14.097561 127.989986,13.7036585 127.720315,13.3719512 C127.450644,13.0195122 127.160229,12.75 126.828326,12.5219512 C126.496423,12.2939024 126.143777,12.1280488 125.749642,12.0243902 C125.355508,11.9207317 124.961373,11.8792683 124.567239,11.9207317 C123.986409,11.9621951 123.467811,12.1280488 122.949213,12.4182927 C122.451359,12.7085366 122.015737,13.0817073 121.642346,13.5585366 C121.268956,14.0353659 120.978541,14.595122 120.771102,15.2170732 C120.563662,15.8597561 120.439199,16.5439024 120.439199,17.2902439 C120.439199,17.8914634 120.542918,18.4512195 120.771102,18.9695122 C120.978541,19.4878049 121.268956,19.9231707 121.642346,20.3170732 C122.015737,20.6902439 122.451359,20.9804878 122.949213,21.1670732 C123.447067,21.3536585 123.986409,21.4365854 124.567239,21.395122 C124.982117,21.3743902 125.376252,21.2707317 125.749642,21.1256098 C126.123033,20.9804878 126.47568,20.7939024 126.807582,20.545122 C127.139485,20.2963415 127.4299,20.0060976 127.699571,19.6743902 C127.969242,19.3426829 128.176681,18.9695122 128.342632,18.554878 L131.391989,21.6231707 C130.997854,22.245122 130.562232,22.804878 130.043634,23.302439 C129.54578,23.8 128.985694,24.2353659 128.404864,24.6085366 C127.824034,24.9817073 127.201717,25.2719512 126.558655,25.4792683 C125.915594,25.6865854 125.251788,25.8109756 124.567239,25.8731707 C123.405579,25.9560976 122.326896,25.7902439 121.310443,25.3963415 C120.293991,25.002439 119.402003,24.4219512 118.655222,23.6756098 C117.887697,22.9292683 117.306867,22.0378049 116.850501,20.9804878 C116.414878,19.9439024 116.186695,18.8036585 116.186695,17.5804878 C116.186695,16.2536585 116.414878,14.9890244 116.850501,13.8073171 C117.286123,12.6256098 117.887697,11.5682927 118.655222,10.6353659 C119.422747,9.72317073 120.293991,8.97682927 121.310443,8.39634146 C122.326896,7.81585366 123.405579,7.48414634 124.567239,7.40121951 C125.251788,7.33902439 125.915594,7.3804878 126.579399,7.52560976 C127.243205,7.67073171 127.865522,7.87804878 128.467096,8.18902439 C129.06867,8.5 129.608011,8.89390244 130.126609,9.37073171 C130.60372,9.86829268 131.039342,10.4280488 131.391989,11.05 Z" id="Path"></path>
                <path d="M141.639485,24.4012195 C140.623033,24.4634146 139.689557,24.3182927 138.797568,23.9658537 C137.905579,23.6134146 137.138054,23.095122 136.474249,22.4317073 C135.810443,21.7682927 135.291845,20.9597561 134.897711,20.047561 C134.52432,19.1146341 134.316881,18.1195122 134.316881,17.0414634 L134.316881,11.8378049 L132.283977,11.9829268 L132.283977,7.52560976 L134.316881,7.3804878 L134.316881,0.373170732 L138.486409,0.0414634146 L138.486409,7.0695122 L144.813305,6.59268293 L144.813305,11.0707317 L138.486409,11.5268293 L138.486409,16.7512195 C138.486409,17.2280488 138.569385,17.6634146 138.735336,18.0573171 C138.901288,18.4512195 139.129471,18.8036585 139.399142,19.0939024 C139.689557,19.3841463 140.021459,19.5914634 140.415594,19.7573171 C140.809728,19.902439 141.224607,19.9646341 141.660229,19.9439024 L144.834049,19.7158537 L144.834049,24.1939024 L141.639485,24.4012195 Z" id="Path"></path>
            </g>
            <path d="M153.098039,43.9338544 L149.882353,44.7941865 L149,28.3219738 L154,27 L153.098039,43.9338544 Z M153.960784,47.6060037 C153.960784,47.9837105 153.901961,48.3404336 153.764706,48.6971567 C153.627451,49.0538798 153.45098,49.3896191 153.235294,49.6833911 C153.019608,49.977163 152.745098,50.2289675 152.45098,50.4597884 C152.156863,50.6696255 151.843137,50.8374952 151.490196,50.92143 C151.137255,51.0053648 150.823529,51.0263485 150.529412,50.9633974 C150.235294,50.9004463 149.960784,50.7955277 149.745098,50.6066743 C149.509804,50.4388047 149.333333,50.1870001 149.215686,49.9142119 C149.078431,49.6204399 149.019608,49.2847006 149.019608,48.9279775 C149.019608,48.5712544 149.078431,48.2145313 149.215686,47.8578083 C149.352941,47.5010852 149.529412,47.1863295 149.745098,46.8715739 C149.980392,46.5778019 150.235294,46.3050137 150.529412,46.0951766 C150.823529,45.8853395 151.156863,45.7174698 151.490196,45.6335349 C151.823529,45.5496001 152.137255,45.5286164 152.45098,45.5915675 C152.745098,45.6545187 153.019608,45.7594372 153.235294,45.9482906 C153.45098,46.1161603 153.627451,46.3469811 153.764706,46.6407531 C153.901961,46.9135413 153.960784,47.2492807 153.960784,47.6060037 Z" id="Shape" fill="#5662E8"></path>
        </g>
    </g>
</svg>