<?xml version="1.0" encoding="UTF-8"?>
<svg width="141px" height="175px" viewBox="0 0 141 175" version="1.1" xmlns="http://www.w3.org/2000/svg" xmlns:xlink="http://www.w3.org/1999/xlink">
    <!-- Generator: Sketch 58 (84663) - https://sketch.com -->
    <title>qr-draw</title>
    <desc>Created with Sketch.</desc>
    <g id="Page-1" stroke="none" stroke-width="1" fill="none" fill-rule="evenodd">
        <g id="qr-draw">
            <path d="M66.9743,117.8758 C64.1023,118.2318 60.4623,117.3698 58.0043,116.9578 C53.3563,116.1798 48.6783,115.5498 44.0183,114.8458 C37.6143,113.8788 30.9623,112.2578 24.4613,112.4078 C22.4013,112.4558 20.3133,112.5008 18.3073,112.0258 C16.3013,111.5518 14.3523,110.4918 13.2353,108.7598 C11.6333,106.2738 12.0453,103.0478 12.5163,100.1288 C14.1163,90.2168 14.2923,80.0138 15.7133,70.022 C17.3773,58.326 19.4413,46.691 21.4763,35.057 C22.7833,27.584 24.6363,19.886 24.9213,12.28 C25.7073,-8.685 61.5913,4.401 77.5723,5.973 C84.9303,6.696 87.3983,12.347 85.4643,19.557 C83.3623,27.399 82.9613,36.131 81.7873,44.167 C80.5813,52.407 79.3693,60.646 78.0423,68.866 C77.4403,72.596 76.5633,76.3968 75.8113,80.1988" id="Stroke-1" stroke="#FFFFFF" stroke-linecap="round" stroke-linejoin="round"></path>
            <path d="M41.9938,101.9266 C41.7288,101.1916 40.7328,100.9306 40.0168,101.2436 C39.3008,101.5576 38.8418,102.2746 38.5598,103.0036 C37.9318,104.6396 38.0818,106.6816 39.3338,107.9076 C40.4768,109.0296 42.2738,109.2356 43.8348,108.8756 C45.0428,108.5976 46.2688,107.9236 46.7188,106.7686 C47.1018,105.7846 46.8268,104.6276 46.1958,103.7816 C45.5648,102.9366 44.6228,102.3676 43.6398,101.9836 C42.5888,101.5726 41.4648,101.3486 40.3358,101.3246" id="Stroke-2" stroke="#FFFFFF" stroke-linecap="round" stroke-linejoin="round"></path>
            <path d="M71.8454,76.45 C73.3794,60.703 77.7194,45.339 79.4234,29.608 C79.4854,29.047 79.5394,28.465 79.3584,27.93 C78.8504,26.437 76.9214,26.121 75.3484,26.009 C59.9504,24.919 46.2324,19.062 30.8624,20.485 C30.7804,19.851 29.8074,19.726 29.3444,20.167 C28.8814,20.607 28.8034,21.305 28.7504,21.942 C27.0534,42.192 21.7154,61.975 19.4614,82.171 C19.0494,85.867 18.7404,89.599 19.0924,93.302 C19.2754,95.226 21.0214,94.969 22.9444,95.167 C26.0874,95.49 29.2634,95.243 32.4164,95.451 C37.6074,95.794 42.6264,97.359 47.7184,98.421 C53.4844,99.624 59.3624,100.182 65.2254,100.74" id="Stroke-3" stroke="#FFFFFF" stroke-linecap="round" stroke-linejoin="round"></path>
            <path d="M71.5807,14.019 C70.9547,13.79 70.2037,14.45 70.3487,15.101 C70.4937,15.751 71.4537,16.03 71.9237,15.557 C72.1377,14.934 71.3747,14.235 70.7727,14.5" id="Stroke-4" stroke="#FFFFFF" stroke-linecap="round" stroke-linejoin="round"></path>
            <path d="M46.8259,11.109 C52.4479,11.713 58.0579,12.426 63.6519,13.251 C63.9569,13.296 64.3619,13.514 64.2239,13.79" id="Stroke-5" stroke="#FFFFFF" stroke-linecap="round" stroke-linejoin="round"></path>
            <path d="M16.4098,69.786 C14.4398,67.613 12.4708,65.441 10.4998,63.268 C8.1668,60.695 5.6828,57.721 5.8758,54.253 C5.9208,53.428 6.1808,52.529 6.8808,52.089 C7.3138,51.816 7.8508,51.765 8.3628,51.78 C10.4788,51.841 12.4658,52.907 14.0318,54.331 C15.5978,55.755 16.8028,57.524 17.9908,59.275" id="Stroke-6" stroke="#FFFFFF" stroke-linecap="round" stroke-linejoin="round"></path>
            <path d="M20.1091,40.966 C15.4971,40.443 10.9381,39.446 6.5281,37.997 C5.2821,37.587 3.8391,37.16 2.7291,37.859 C2.1731,38.208 1.8071,38.786 1.5061,39.369 C0.5601,41.204 0.0971,43.444 0.9441,45.326 C2.0491,47.784 4.8981,48.822 7.3901,49.848 C10.9101,51.296 14.2301,53.181 17.5411,55.059" id="Stroke-7" stroke="#FFFFFF" stroke-linecap="round" stroke-linejoin="round"></path>
            <path d="M22.1471,31.301 C20.2251,29.965 18.4391,28.363 17.2461,26.35 C16.0531,24.335 15.5031,21.865 16.1221,19.609 C16.3501,18.773 16.7551,17.952 17.4391,17.42 C18.2441,16.793 19.3241,16.648 20.3441,16.661 C21.1601,16.672 21.9951,16.777 22.7161,17.156 C23.4371,17.536 24.0301,18.234 24.1091,19.045" id="Stroke-8" stroke="#FFFFFF" stroke-linecap="round" stroke-linejoin="round"></path>
            <path d="M84.8864,29.183 C87.4064,31.213 88.5864,34.431 89.6504,37.486 C99.3214,65.268 108.683,93.6885 109.543,123.0925 C109.667,127.3365 109.614,131.5825 109.559,135.8275 L109.36,151.3905" id="Stroke-9" stroke="#FFFFFF" stroke-linecap="round" stroke-linejoin="round"></path>
            <path d="M50.6794,9.41 C51.1134,9.222 51.5854,9.12199011 52.0584,9.12199011 C52.4784,9.121 52.8954,9.196 53.3084,9.271 L60.6644,10.61" id="Stroke-10" stroke="#FFFFFF" stroke-linecap="round" stroke-linejoin="round"></path>
            <path d="M50.6325,14.31 C53.3395,14.829 56.0665,15.247 58.8045,15.565" id="Stroke-11" stroke="#FFFFFF" stroke-linecap="round" stroke-linejoin="round"></path>
            <path d="M45.6569,115.327 C47.1279,129.95 51.5699,144.268 58.6359,157.156 C61.6769,162.7 65.2719,168.199 66.0629,174.472" id="Stroke-12" stroke="#FFFFFF" stroke-linecap="round" stroke-linejoin="round"></path>
            <path d="M79.5397,62.409 C81.3937,61.916 83.3797,61.926 85.2277,62.437" id="Stroke-13" stroke="#FFFFFF" stroke-linecap="round" stroke-linejoin="round"></path>
            <path d="M82.9528,39.433 C83.6738,38.665 84.2868,37.797 84.7688,36.862" id="Stroke-14" stroke="#FFFFFF" stroke-linecap="round" stroke-linejoin="round"></path>
            <path d="M79.7819,84.078 C80.2909,82.31 81.9229,80.922 83.7499,80.703" id="Stroke-15" stroke="#FFFFFF" stroke-linecap="round" stroke-linejoin="round"></path>
            <path d="M85.2966,90.1942 C86.4696,87.8052 89.3426,86.3852 91.9526,86.9042" id="Stroke-16" stroke="#FFFFFF" stroke-linecap="round" stroke-linejoin="round"></path>
            <path d="M76.488,161.6229 C71.418,155.2039 68.28,147.4879 65.64,139.7459 C65.04,137.9819 64.459,136.2039 64.158,134.3659 C62.82,126.1879 67.082,118.2959 69.642,110.4159 C69.928,109.5349 70.198,108.6099 70.056,107.6949 C69.931,106.8909 69.501,106.1689 69.032,105.5029 C67,102.6139 64.153,100.3989 61.919,97.6649 C59.919,95.2159 60.17,93.8649 56.914,93.3659 C53.883,92.9019 50.879,92.2789 47.917,91.4829 C45.782,90.9089 43.61,90.2179 41.897,88.8189 C40.185,87.4199 39.012,85.1539 39.493,82.9959 C40.023,80.6099 42.367,79.0299 44.726,78.3939 C47.086,77.7579 49.577,77.8169 51.975,77.3509 C56.474,76.4739 60.394,73.812 64.647,72.105 C65.07,71.936 65.506,71.772 65.961,71.75 C67.175,71.69 68.191,72.606 69.055,73.46 C76.265,80.5799 83.475,87.6999 90.685,94.8209 C92.222,96.3399 93.77,97.8689 95.001,99.6449 C96.66,102.0399 97.691,104.8029 98.705,107.5329" id="Stroke-17" stroke="#FFFFFF" stroke-linecap="round" stroke-linejoin="round"></path>
            <path d="M53.7116,124.6668 C56.4916,123.4538 58.6056,120.8168 59.1836,117.8398" id="Stroke-18" stroke="#FFFFFF" stroke-linecap="round" stroke-linejoin="round"></path>
            <path d="M59.4177,93.9325 C58.6587,91.8545 58.5527,89.5435 59.1167,87.4055" id="Stroke-19" stroke="#FFFFFF" stroke-linecap="round" stroke-linejoin="round"></path>
            <path d="M64.0602,99.1707 C63.8682,98.2537 64.0012,97.2707 64.4332,96.4387" id="Stroke-20" stroke="#FFFFFF" stroke-linecap="round" stroke-linejoin="round"></path>
            <path d="M40.3073,81.5457 C39.6273,83.0657 40.7813,84.9067 42.3193,85.5427 C43.8573,86.1787 45.6053,85.9267 47.2353,85.5867 C47.2943,82.9297 49.5533,80.9267 50.8293,78.5957 C50.9883,78.3077 51.1233,77.9277 50.9153,77.6747 C50.7873,77.5207 50.5753,77.4737 50.3763,77.4417 C47.4963,76.9657 44.4643,77.4667 41.8913,78.8437 C40.5953,79.5367 39.2833,80.7257 39.4343,82.1877 C39.5793,83.5867 40.9683,84.4667 42.2073,85.1327" id="Stroke-21" stroke="#FFFFFF" stroke-linecap="round" stroke-linejoin="round"></path>
            <path d="M71.3503,150.6444 C73.5643,151.5124 75.5763,152.8224 77.7253,153.8404 C79.8733,154.8594 82.2693,155.5944 84.6143,155.2004" id="Stroke-22" stroke="#FFFFFF" stroke-linecap="round" stroke-linejoin="round"></path>
            <path d="M61.9343,163.1551 C63.1293,164.0171 64.7413,164.2711 66.1433,163.8191" id="Stroke-23" stroke="#FFFFFF" stroke-linecap="round" stroke-linejoin="round"></path>
            <path d="M63.8288,167.9207 C65.4888,167.9777 67.1478,168.0347 68.8078,168.0917 C69.2858,168.1077 69.7768,168.1227 70.2278,167.9657 C70.9018,167.7297 71.5538,167.1157 72.2208,167.3687" id="Stroke-24" stroke="#FFFFFF" stroke-linecap="round" stroke-linejoin="round"></path>
            <path d="M83.278,167.8289 C83.768,168.2539 84.474,168.2909 85.123,168.3079 C88.126,168.3869 91.336,168.4099 93.86,166.7809" id="Stroke-25" stroke="#FFFFFF" stroke-linecap="round" stroke-linejoin="round"></path>
            <path d="M68.2878,123.0731 C68.9808,125.6811 71.4078,127.7331 74.0958,127.9831" id="Stroke-26" stroke="#FFFFFF" stroke-linecap="round" stroke-linejoin="round"></path>
            <path d="M74.7429,123.4959 C76.3519,124.8719 78.3139,125.8349 80.3889,126.2649" id="Stroke-27" stroke="#FFFFFF" stroke-linecap="round" stroke-linejoin="round"></path>
            <path d="M88.4958,45.512 C90.6968,50.567 92.4248,55.826 93.6488,61.2" id="Stroke-28" stroke="#FFFFFF" stroke-linecap="round" stroke-linejoin="round"></path>
            <path d="M109.191,149.1336 C111.006,156.9826 112.977,164.7956 115.101,172.5666" id="Stroke-29" stroke="#FFFFFF" stroke-linecap="round" stroke-linejoin="round"></path>
            <path d="M35.2204,46.546 C35.8384,46.621 36.4004,46.181 36.4754,45.563 L37.0184,41.085 L41.4944,41.628 C42.1134,41.703 42.6754,41.263 42.7504,40.645 C42.8244,40.026 42.3844,39.465 41.7664,39.39 L36.1704,38.711 C35.5524,38.636 34.9904,39.076 34.9154,39.694 L34.2374,45.291 C34.1614,45.909 34.6024,46.471 35.2204,46.546" id="Fill-30" fill="#FFFFFF"></path>
            <path d="M65.2712,42.239 L59.6752,41.56 C59.0572,41.485 58.4952,41.926 58.4192,42.544 C58.3452,43.162 58.7862,43.724 59.4042,43.799 L63.8802,44.342 L63.3372,48.819 C63.2632,49.437 63.7042,49.999 64.3222,50.074 C64.9402,50.148 65.5012,49.709 65.5772,49.091 L66.2542,43.494 C66.3302,42.876 65.8892,42.314 65.2712,42.239" id="Fill-31" fill="#FFFFFF"></path>
            <path d="M38.2389,68.49 L33.7609,67.948 L34.3039,63.47 C34.3799,62.852 33.9389,62.291 33.3209,62.216 C32.7029,62.14 32.1399,62.581 32.0659,63.199 L31.3869,68.796 C31.3119,69.414 31.7529,69.975 32.3709,70.051 L37.9679,70.729 C38.5859,70.803 39.1469,70.363 39.2219,69.745 C39.2979,69.127 38.8569,68.565 38.2389,68.49" id="Fill-32" fill="#FFFFFF"></path>
            <path d="M62.4216,65.744 C61.8036,65.669 61.2416,66.109 61.1666,66.727 L60.6236,71.204 L56.1476,70.662 C55.5286,70.587 54.9676,71.027 54.8926,71.645 C54.8176,72.264 55.2576,72.825 55.8756,72.9 L61.4726,73.579 C62.0906,73.653 62.6516,73.213 62.7276,72.595 L63.4046,66.999 C63.4806,66.381 63.0396,65.818 62.4216,65.744" id="Fill-33" fill="#FFFFFF"></path>
            <path d="M41.9362,47.36 L44.1742,47.631 L43.9032,49.87 L41.6652,49.598 L41.9362,47.36 Z M39.8332,45.969 L39.2902,50.446 C39.2152,51.064 39.6562,51.627 40.2742,51.701 L44.7512,52.244 C45.3692,52.319 45.9312,51.879 46.0062,51.26 L46.5482,46.783 C46.6232,46.165 46.1832,45.603 45.5652,45.528 L41.0882,44.986 C40.4702,44.911 39.9082,45.351 39.8332,45.969 L39.8332,45.969 Z" id="Fill-34" fill="#FFFFFF"></path>
            <path d="M55.3679,48.988 L57.6059,49.259 L57.3349,51.498 L55.0969,51.226 L55.3679,48.988 Z M53.7059,53.33 L58.1819,53.873 C58.8009,53.947 59.3619,53.507 59.4369,52.888 L59.9799,48.412 C60.0549,47.794 59.6149,47.231 58.9969,47.157 L54.5189,46.614 C53.9009,46.539 53.3399,46.979 53.2639,47.597 L52.7219,52.075 C52.6469,52.693 53.0879,53.255 53.7059,53.33 L53.7059,53.33 Z" id="Fill-35" fill="#FFFFFF"></path>
            <path d="M42.2751,63.302 L40.0371,63.031 L40.3081,60.791 L42.5461,61.063 L42.2751,63.302 Z M43.9371,58.96 L39.4601,58.417 C38.8411,58.342 38.2801,58.782 38.2051,59.401 L37.6621,63.878 C37.5881,64.496 38.0281,65.058 38.6461,65.133 L43.1231,65.676 C43.7411,65.75 44.3021,65.311 44.3781,64.693 L44.9211,60.215 C44.9961,59.597 44.5551,59.035 43.9371,58.96 L43.9371,58.96 Z" id="Fill-36" fill="#FFFFFF"></path>
            <path d="M48.3805,50.413 L49.4995,50.549 L49.2285,52.787 C49.1525,53.405 49.5935,53.967 50.2115,54.042 C50.8295,54.117 51.3925,53.677 51.4665,53.059 L51.8735,49.7 C51.9485,49.082 51.5085,48.52 50.8905,48.445 L49.7715,48.309 L49.9065,47.19 C49.9825,46.572 49.5415,46.011 48.9235,45.935 C48.3055,45.86 47.7425,46.301 47.6685,46.919 L47.3975,49.158 C47.3215,49.776 47.7625,50.338 48.3805,50.413" id="Fill-37" fill="#FFFFFF"></path>
            <path d="M42.9538,57.705 C43.5718,57.78 44.1338,57.34 44.2088,56.722 L44.4798,54.482 C44.5548,53.864 44.1138,53.303 43.4958,53.227 L40.1388,52.82 C39.5198,52.746 38.9588,53.186 38.8838,53.805 C38.8078,54.423 39.2488,54.984 39.8668,55.059 L42.1048,55.331 L41.9698,56.45 C41.8948,57.068 42.3358,57.63 42.9538,57.705" id="Fill-38" fill="#FFFFFF"></path>
            <path d="M48.5495,58.384 C49.1675,58.458 49.7305,58.018 49.8045,57.4 C49.8795,56.781 49.4395,56.22 48.8205,56.145 L47.7015,56.009 L47.8375,54.89 C47.9125,54.272 47.4725,53.71 46.8545,53.635 C46.2365,53.56 45.6735,54 45.5995,54.618 L45.3275,56.858 C45.2525,57.476 45.6935,58.037 46.3115,58.113 L48.5495,58.384 Z" id="Fill-39" fill="#FFFFFF"></path>
            <path d="M54.2819,57.942 C54.8999,58.017 55.4619,57.577 55.5369,56.959 L55.6729,55.839 C55.7479,55.221 55.3069,54.66 54.6889,54.585 C54.0709,54.509 53.5089,54.95 53.4339,55.568 L51.1949,55.296 C50.5769,55.221 50.0149,55.662 49.9399,56.28 C49.8659,56.898 50.3059,57.461 50.9249,57.535 L54.2819,57.942 Z" id="Fill-40" fill="#FFFFFF"></path>
            <path d="M51.5007,62.148 C52.1187,62.223 52.6807,61.783 52.7557,61.165 L57.2317,61.707 C57.8507,61.782 58.4127,61.341 58.4877,60.723 L59.0297,56.247 C59.1047,55.628 58.6647,55.066 58.0467,54.992 C57.4287,54.917 56.8667,55.357 56.7917,55.975 L56.3847,59.333 L51.9077,58.79 C51.2897,58.715 50.7277,59.156 50.6527,59.774 L50.5177,60.893 C50.4417,61.511 50.8827,62.073 51.5007,62.148" id="Fill-41" fill="#FFFFFF"></path>
            <path d="M49.2624,61.877 L48.1424,61.741 L48.2784,60.622 C48.3534,60.004 47.9124,59.442 47.2944,59.367 C46.6764,59.292 46.1154,59.732 46.0394,60.351 L45.4964,64.828 C45.4224,65.445 45.8634,66.008 46.4814,66.083 C47.0994,66.157 47.6604,65.717 47.7364,65.099 L47.8714,63.98 L48.9914,64.115 C49.6094,64.19 50.1704,63.75 50.2454,63.132 C50.3214,62.514 49.8804,61.952 49.2624,61.877" id="Fill-42" fill="#FFFFFF"></path>
            <path d="M55.571,66.049 C55.496,66.667 55.936,67.229 56.554,67.304 C57.173,67.379 57.734,66.939 57.809,66.32 L58.081,64.082 C58.155,63.464 57.716,62.902 57.097,62.827 L53.739,62.42 C53.121,62.345 52.559,62.785 52.484,63.403 L52.348,64.523 L51.229,64.387 C50.611,64.312 50.05,64.752 49.974,65.37 C49.899,65.988 50.34,66.551 50.958,66.625 L53.196,66.897 C53.814,66.972 54.377,66.531 54.451,65.913 L54.587,64.794 L55.707,64.93 L55.571,66.049 Z" id="Fill-43" fill="#FFFFFF"></path>
            <path d="M98.2614,22.145 C102.599,15.439 106.938,8.732 111.276,2.026" id="Stroke-44" stroke="#FFFFFF" stroke-linecap="round" stroke-linejoin="round"></path>
            <path d="M115.965,61.987 C124.21,62.121 132.455,62.256 140.7,62.389" id="Stroke-45" stroke="#FFFFFF" stroke-linecap="round" stroke-linejoin="round"></path>
            <path d="M118.269,23.086 C117.861,22.274 117.3,21.775 116.587,21.591 C115.873,21.407 115.063,21.543 114.156,21.999 C113.237,22.46 112.65,23.056 112.396,23.784 C112.14,24.514 112.216,25.284 112.624,26.098 C112.842,26.531 113.084,26.868 113.351,27.11 C113.619,27.354 113.895,27.574 114.18,27.774 C114.123,28.028 114.016,28.257 113.861,28.461 C113.706,28.665 113.49,28.836 113.215,28.974 C112.783,29.19 112.295,29.134 111.753,28.805 C111.211,28.476 110.694,27.82 110.202,26.839 C109.846,26.131 109.613,25.416 109.5,24.692 C109.389,23.969 109.424,23.271 109.609,22.596 C109.792,21.922 110.135,21.291 110.64,20.701 C111.142,20.112 111.838,19.595 112.725,19.149 C113.548,18.735 114.338,18.501 115.097,18.444 C115.854,18.388 116.562,18.475 117.22,18.706 C117.878,18.938 118.469,19.298 118.993,19.788 C119.517,20.279 119.951,20.867 120.295,21.554 C120.783,22.524 121.001,23.357 120.953,24.048 C120.904,24.74 120.631,25.211 120.135,25.46 C119.86,25.598 119.588,25.649 119.319,25.611 C119.05,25.575 118.812,25.496 118.606,25.375 C118.648,25.011 118.654,24.641 118.623,24.266 C118.594,23.892 118.476,23.498 118.269,23.086" id="Fill-46" fill="#FFFFFF"></path>
            <path d="M113.381,32.577 C113.153,32.124 113.105,31.698 113.236,31.302 C113.367,30.906 113.66,30.594 114.113,30.366 L122.3,26.257 C122.379,26.361 122.501,26.532 122.665,26.766 C122.829,27.002 122.97,27.235 123.086,27.467 C123.208,27.71 123.297,27.932 123.353,28.137 C123.408,28.34 123.421,28.528 123.39,28.703 C123.359,28.878 123.274,29.038 123.137,29.186 C122.999,29.335 122.794,29.477 122.52,29.615 L116.265,32.755 L118.085,36.381 C118.006,36.513 117.885,36.659 117.722,36.821 C117.558,36.982 117.371,37.116 117.16,37.222 C116.737,37.434 116.395,37.494 116.13,37.402 C115.865,37.31 115.66,37.116 115.511,36.82 L113.381,32.577 Z" id="Fill-47" fill="#FFFFFF"></path>
            <path d="M118.22,41.942 C118.13,41.842 118.007,41.675 117.851,41.444 C117.695,41.212 117.556,40.973 117.434,40.731 C117.312,40.488 117.224,40.265 117.167,40.062 C117.112,39.859 117.099,39.671 117.13,39.496 C117.162,39.322 117.246,39.16 117.383,39.012 C117.521,38.864 117.726,38.721 118,38.584 L126.361,34.386 C126.44,34.492 126.562,34.662 126.727,34.897 C126.89,35.132 127.031,35.366 127.147,35.597 C127.269,35.84 127.358,36.063 127.414,36.266 C127.47,36.469 127.482,36.659 127.45,36.833 C127.419,37.007 127.334,37.169 127.198,37.316 C127.06,37.464 126.855,37.608 126.579,37.746 L118.22,41.942 Z" id="Fill-48" fill="#FFFFFF"></path>
            <path d="M129.31,45.078 C128.901,44.265 128.34,43.767 127.627,43.583 C126.914,43.399 126.103,43.535 125.196,43.991 C124.278,44.452 123.691,45.048 123.436,45.776 C123.181,46.506 123.257,47.276 123.665,48.09 C123.882,48.523 124.124,48.86 124.392,49.102 C124.659,49.346 124.935,49.566 125.22,49.766 C125.163,50.02 125.056,50.249 124.901,50.453 C124.746,50.657 124.531,50.828 124.256,50.966 C123.823,51.182 123.336,51.126 122.794,50.797 C122.252,50.468 121.735,49.812 121.242,48.831 C120.886,48.123 120.653,47.408 120.541,46.684 C120.429,45.961 120.465,45.263 120.649,44.588 C120.832,43.914 121.176,43.283 121.68,42.693 C122.183,42.104 122.878,41.587 123.765,41.141 C124.588,40.727 125.378,40.493 126.137,40.436 C126.895,40.38 127.602,40.467 128.26,40.698 C128.918,40.93 129.509,41.29 130.033,41.78 C130.557,42.271 130.991,42.859 131.335,43.546 C131.823,44.516 132.042,45.349 131.994,46.04 C131.944,46.732 131.671,47.203 131.176,47.452 C130.901,47.59 130.628,47.641 130.36,47.603 C130.09,47.567 129.852,47.488 129.646,47.367 C129.688,47.003 129.694,46.633 129.664,46.258 C129.634,45.884 129.516,45.49 129.31,45.078" id="Fill-49" fill="#FFFFFF"></path>
        </g>
    </g>
</svg>